#!OML:ASF H:\MichaelJackson\Top Level 1\Subject 1\Session 1\male.ASF
:FULLY-SPECIFIED
:DEGREES
1812
root -8.57248 16.0334 33.8333 -354.137 -25.9648 -0.0104226
lowerback -2.75175 -2.15768 2.47166
upperback -2.17507 -2.94763 -2.16761
thorax -0.932671 -1.5302 -3.66427
lowerneck -4.78547 -1.04221 2.37763
upperneck -3.42738 -1.47638 3.49431
head -0.251824 -0.775575 0.654936
rclavicle 1.09696e-013 4.77083e-015
rhumerus -165.15 207.184 -182.355
rradius 32.4708
rwrist -14.3845
rhand -39.288 -53.507
rfingers 7.12502
rthumb -12.2813 -443.126
lclavicle 1.09696e-013 4.77083e-015
lhumerus -53.6499 -32.3554 112.943
lradius 53.6752
lwrist 18.2808
lhand 29.8912 28.652
lfingers 7.12502
lthumb 53.6091 47.7509
rfemur -27.6275 -0.332147 -0.416763
rtibia 36.9359
rfoot -12.3104 -7.06907
rtoes -39.8854
lfemur 1.92584 -14.5688 -1.22079
ltibia 17.7436
lfoot -25.4459 4.06565
ltoes -18.3951
1813
root -8.5644 16.0363 33.8299 -354.107 -25.9377 -0.0036448
lowerback -2.79714 -2.15259 2.45476
upperback -2.19985 -2.94142 -2.15761
thorax -0.930825 -1.52719 -3.64574
lowerneck -4.81034 -1.03998 2.39048
upperneck -3.38291 -1.47647 3.48605
head -0.234496 -0.774493 0.649953
rclavicle 2.7659e-014 -3.18055e-015
rhumerus -165.248 206.977 -182.23
rradius 32.5426
rwrist -14.4964
rhand -39.3584 -53.5318
rfingers 7.12502
rthumb -12.3492 -443.147
lclavicle 2.7659e-014 -3.18055e-015
lhumerus -53.6335 -32.342 112.988
lradius 53.5885
lwrist 18.3501
lhand 29.8439 28.6467
lfingers 7.12502
lthumb 53.5665 47.7736
rfemur -27.6187 -0.217212 -0.459748
rtibia 36.8336
rfoot -12.2135 -7.16651
rtoes -39.8167
lfemur 1.87667 -14.6595 -1.24515
ltibia 17.7082
lfoot -25.409 4.13771
ltoes -18.3667
1814
root -8.55664 16.0389 33.8261 -354.084 -25.8934 0.0174404
lowerback -2.84223 -2.15228 2.42055
upperback -2.21684 -2.94117 -2.15082
thorax -0.920894 -1.5267 -3.62105
lowerneck -4.84081 -1.0436 2.40117
upperneck -3.35625 -1.484 3.46995
head -0.221677 -0.777475 0.642896
rclavicle -5.3734e-014 -1.66979e-014
rhumerus -165.354 206.792 -182.103
rradius 32.618
rwrist -14.5945
rhand -39.3894 -53.4463
rfingers 7.12502
rthumb -12.3791 -443.06
lclavicle -5.3734e-014 -1.66979e-014
lhumerus -53.6161 -32.3464 113.035
lradius 53.5075
lwrist 18.3891
lhand 29.8 28.6183
lfingers 7.12502
lthumb 53.5271 47.7711
rfemur -27.6058 -0.126015 -0.514863
rtibia 36.7411
rfoot -12.1118 -7.26283
rtoes -39.7662
lfemur 1.82492 -14.7522 -1.27553
ltibia 17.6634
lfoot -25.3722 4.19526
ltoes -18.3484
1815
root -8.54921 16.0414 33.8223 -354.07 -25.8341 0.042797
lowerback -2.88414 -2.15623 2.3789
upperback -2.22562 -2.94628 -2.14526
thorax -0.904393 -1.52855 -3.59357
lowerneck -4.87252 -1.05301 2.40887
upperneck -3.34699 -1.49866 3.44903
head -0.21392 -0.784376 0.634841
rclavicle -3.1196e-014 -1.59028e-014
rhumerus -165.452 206.647 -181.991
rradius 32.6829
rwrist -14.6549
rhand -39.3877 -53.2675
rfingers 7.12502
rthumb -12.3775 -442.881
lclavicle -3.1196e-014 -1.59028e-014
lhumerus -53.6009 -32.3595 113.081
lradius 53.4373
lwrist 18.3865
lhand 29.7655 28.565
lfingers 7.12502
lthumb 53.4961 47.7382
rfemur -27.5808 -0.0553309 -0.571466
rtibia 36.6543
rfoot -12.0063 -7.35866
rtoes -39.7402
lfemur 1.77762 -14.8486 -1.30459
ltibia 17.6111
lfoot -25.3372 4.24156
ltoes -18.3396
1816
root -8.54209 16.0437 33.8183 -354.06 -25.7596 0.0637357
lowerback -2.92296 -2.16396 2.33907
upperback -2.22519 -2.95629 -2.14031
thorax -0.880662 -1.53262 -3.56794
lowerneck -4.90732 -1.06824 2.41767
upperneck -3.35517 -1.52076 3.4234
head -0.210974 -0.795393 0.625141
rclavicle 1.52855e-014 -1.59028e-015
rhumerus -165.515 206.579 -181.927
rradius 32.7125
rwrist -14.6433
rhand -39.3569 -53.0273
rfingers 7.12502
rthumb -12.3478 -442.643
lclavicle 1.52855e-014 -1.59028e-015
lhumerus -53.5856 -32.3827 113.12
lradius 53.3814
lwrist 18.3487
lhand 29.7454 28.4967
lfingers 7.12502
lthumb 53.4779 47.6817
rfemur -27.5438 -0.00233081 -0.621864
rtibia 36.5685
rfoot -11.8981 -7.45024
rtoes -39.7247
lfemur 1.73163 -14.9396 -1.32214
ltibia 17.5547
lfoot -25.3068 4.27022
ltoes -18.3472
1817
root -8.53519 16.0459 33.8145 -354.054 -25.6735 0.0724305
lowerback -2.95628 -2.1753 2.3101
upperback -2.22017 -2.97114 -2.13345
thorax -0.856136 -1.53914 -3.54637
lowerneck -4.92897 -1.088 2.42008
upperneck -3.37886 -1.54755 3.40068
head -0.214752 -0.809152 0.617468
rclavicle 4.62283e-014 1.66979e-014
rhumerus -165.561 206.541 -181.885
rradius 32.7238
rwrist -14.5842
rhand -39.3207 -52.8142
rfingers 7.12502
rthumb -12.3128 -442.432
lclavicle 4.62283e-014 1.66979e-014
lhumerus -53.5745 -32.4062 113.152
lradius 53.3406
lwrist 18.2958
lhand 29.7304 28.4272
lfingers 7.12502
lthumb 53.4645 47.621
rfemur -27.4909 0.0361095 -0.658881
rtibia 36.4802
rfoot -11.7924 -7.53436
rtoes -39.7173
lfemur 1.68996 -15.0276 -1.32367
ltibia 17.4991
lfoot -25.2842 4.28345
ltoes -18.3606
1818
root -8.52844 16.0479 33.8107 -354.048 -25.5815 0.0660764
lowerback -2.98743 -2.1886 2.29662
upperback -2.20908 -2.98882 -2.12563
thorax -0.827562 -1.54711 -3.53266
lowerneck -4.95224 -1.11094 2.4262
upperneck -3.40501 -1.57879 3.37482
head -0.219059 -0.825224 0.608178
rclavicle -5.29218e-014 -7.15625e-015
rhumerus -165.582 206.536 -181.875
rradius 32.7113
rwrist -14.4925
rhand -39.3069 -52.6867
rfingers 7.12502
rthumb -12.2996 -442.305
lclavicle -5.29218e-014 -7.15625e-015
lhumerus -53.5602 -32.4319 113.172
lradius 53.3108
lwrist 18.2452
lhand 29.7251 28.368
lfingers 7.12502
lthumb 53.4596 47.565
rfemur -27.4246 0.0631439 -0.679975
rtibia 36.3869
rfoot -11.6923 -7.6105
rtoes -39.7207
lfemur 1.6516 -15.106 -1.30792
ltibia 17.4483
lfoot -25.2715 4.2865
ltoes -18.3971
1819
root -8.52178 16.0497 33.8072 -354.039 -25.4889 0.0431683
lowerback -3.01915 -2.20156 2.30145
upperback -2.19228 -3.00639 -2.11798
thorax -0.793759 -1.55507 -3.52959
lowerneck -4.97927 -1.13458 2.43292
upperneck -3.42951 -1.61116 3.35506
head -0.222219 -0.841806 0.600606
rclavicle -1.49632e-015 -1.51076e-014
rhumerus -165.588 206.557 -181.89
rradius 32.6793
rwrist -14.3748
rhand -39.2903 -52.613
rfingers 7.12502
rthumb -12.2836 -442.232
lclavicle -1.49632e-015 -1.51076e-014
lhumerus -53.5377 -32.4596 113.175
lradius 53.2888
lwrist 18.2026
lhand 29.7231 28.3188
lfingers 7.12502
lthumb 53.4578 47.5169
rfemur -27.3507 0.0806018 -0.683694
rtibia 36.288
rfoot -11.5992 -7.67675
rtoes -39.7306
lfemur 1.61327 -15.1704 -1.27345
ltibia 17.4059
lfoot -25.2693 4.2733
ltoes -18.4286
1820
root -8.51512 16.0513 33.8039 -354.03 -25.3986 0.00813728
lowerback -3.04619 -2.21462 2.31969
upperback -2.17978 -3.02438 -2.10866
thorax -0.767675 -1.56358 -3.53205
lowerneck -4.98706 -1.1573 2.43239
upperneck -3.44515 -1.64134 3.34185
head -0.22567 -0.857157 0.596322
rclavicle 2.91654e-015 -4.77083e-015
rhumerus -165.582 206.573 -181.92
rradius 32.6355
rwrist -14.2634
rhand -39.298 -52.605
rfingers 7.12502
rthumb -12.291 -442.224
lclavicle 2.91654e-015 -4.77083e-015
lhumerus -53.5196 -32.4748 113.171
lradius 53.2661
lwrist 18.1728
lhand 29.7211 28.2695
lfingers 7.12502
lthumb 53.4561 47.4688
rfemur -27.2694 0.084791 -0.673778
rtibia 36.1839
rfoot -11.5178 -7.72776
rtoes -39.7432
lfemur 1.57565 -15.2183 -1.22636
ltibia 17.3746
lfoot -25.277 4.24556
ltoes -18.4607
